<svg width="32" height="32" viewBox="0 0 32 32" fill="none" xmlns="http://www.w3.org/2000/svg">
  <!-- M letter -->
  <path d="M5 22V10H7.5L10 16L12.5 10H15V22H12.5V13L10.5 18H9.5L7.5 13V22H5Z" fill="#8B4513"/>
  <!-- S letter -->
  <path d="M17 10C17 10 17 11.5 18.5 11.5C20 11.5 20.5 11.5 20.5 12.5V13.5C20.5 14.5 19.5 14.5 18.5 14.5C17.5 14.5 17 15 17 16C17 17 17.5 17.5 18.5 17.5C19.5 17.5 20.5 17.5 20.5 18.5V19.5C20.5 20.5 19.5 21 18.5 21C17 21 16 20.5 16 19C16 18 16.5 17.5 17.5 17.5C18.5 17.5 19.5 17 19.5 16C19.5 15 19 14.5 18.5 14.5C17.5 14.5 16.5 14 16.5 13V12C16.5 11 17 10.5 18 10.5C18.5 10.5 19 10 19 10H17Z" fill="#8B4513"/>
</svg>
